<?xml version="1.0" encoding="utf-8"?>
<!-- Generator: Adobe Illustrator 22.1.0, SVG Export Plug-In . SVG Version: 6.00 Build 0)  -->
<svg version="1.1" id="图层_1" xmlns="http://www.w3.org/2000/svg" xmlns:xlink="http://www.w3.org/1999/xlink" x="0px" y="0px"
	 viewBox="0 0 16 16" style="enable-background:new 0 0 16 16;" xml:space="preserve">
<style type="text/css">
	.st0{fill:#1A9BF7;}
</style>
<title>图标</title>
<g>
	<path class="st0" d="M3.7,7.6C3.9,5.9,5.3,4.7,7,4.7c0.9,0,1.7,0.4,2.3,1l2.6-2l-0.8-0.8c-0.1-0.1-0.4,0-0.7,0.2L9.5,3.9
		C9.1,3.6,8.6,3.4,8.1,3.3L8,2.1c0-0.3-0.2-0.6-0.3-0.6H6.3C6.2,1.5,6,1.8,6,2.1L5.9,3.3c-0.5,0.1-1,0.3-1.4,0.6l-1-0.8
		C3.3,2.9,3,2.8,2.8,2.9L1.9,3.9C1.8,4,1.8,4.3,2.1,4.5l0.8,0.9C2.6,5.9,2.4,6.4,2.3,6.9L1.1,7C0.8,7,0.5,7.2,0.5,7.3v1.3
		C0.5,8.8,0.8,9,1.1,9l1.2,0.1c0.1,0.5,0.3,1,0.6,1.4l-0.8,0.9c-0.2,0.2-0.3,0.5-0.2,0.7L2.9,13c0.1,0.1,0.4,0.1,0.7-0.2l1-0.8
		C5,12.3,5.5,12.5,6,12.7l0,1.2c0,0.3,0.2,0.6,0.3,0.6h1.3c0.2,0,0.3-0.3,0.3-0.6l0.1-1.2c0.5-0.1,1-0.3,1.4-0.6v-0.6l-3-0.3
		C4.7,11,3.5,9.3,3.7,7.6z"/>
	<polygon class="st0" points="11.5,6.5 7.5,9.5 10.5,9.5 10.5,14.5 12.5,14.5 12.5,9.5 15.5,9.5 	"/>
</g>
</svg>
