<?xml version="1.0" encoding="utf-8"?>
<!-- Generator: Adobe Illustrator 22.1.0, SVG Export Plug-In . SVG Version: 6.00 Build 0)  -->
<svg version="1.1" id="图层_1" xmlns="http://www.w3.org/2000/svg" xmlns:xlink="http://www.w3.org/1999/xlink" x="0px" y="0px"
	 viewBox="0 0 16 16" style="enable-background:new 0 0 16 16;" xml:space="preserve">
<style type="text/css">
	.st0{fill-rule:evenodd;clip-rule:evenodd;fill:#1A9BF7;}
	.st1{fill:#1A9BF7;}
</style>
<g>
	<path class="st1" d="M8,15c-0.1,0-0.1,0-0.2-0.1C7.6,14.8,2,10.8,2,6.6C2,3.5,4.7,1,8,1s6,2.5,6,5.6c0,4.2-5.6,8.2-5.8,8.3
		C8.1,15,8.1,15,8,15z M8,1.9C5.2,1.9,2.9,4,2.9,6.7c0,3.3,4.1,6.7,5.1,7.4c0.9-0.7,5.1-4.1,5.1-7.4C13.1,4,10.8,1.9,8,1.9z"/>
	<path class="st1" d="M8,9.7c-1.4,0-3-1-3-2.5c0-1.5,1.4-2.7,3-2.7s3,1.2,3,2.7C11,8.8,9.4,9.7,8,9.7z M8,5.4c-1.4,0-2,0.8-2,1.8
		c0,1,0.9,1.7,2,1.7s2-0.8,2-1.7C10,6.1,9.4,5.4,8,5.4z"/>
	<path class="st1" d="M8,15c-0.1,0-0.1,0-0.2-0.1C7.6,14.8,2,10.8,2,6.6C2,3.5,4.7,1,8,1s6,2.5,6,5.6c0,4.2-5.6,8.2-5.8,8.3
		C8.1,15,8.1,15,8,15z M8,1.9C5.2,1.9,2.9,4,2.9,6.7c0,3.3,4.1,6.7,5.1,7.4c0.9-0.7,5.1-4.1,5.1-7.4C13.1,4,10.8,1.9,8,1.9z"/>
	<path class="st1" d="M8,9.7c-1.4,0-3-1-3-2.5c0-1.5,1.4-2.7,3-2.7s3,1.2,3,2.7C11,8.8,9.4,9.7,8,9.7z M8,5.4c-1.4,0-2,0.8-2,1.8
		c0,1,0.9,1.7,2,1.7s2-0.8,2-1.7C10,6.1,9.4,5.4,8,5.4z"/>
</g>
</svg>
