<svg id="图层_1" data-name="图层 1" xmlns="http://www.w3.org/2000/svg" viewBox="0 0 16 16"><defs><style>.cls-1{fill:#1a9bf7;fill-rule:evenodd;}</style></defs><title>图标</title><path class="cls-1" d="M13.5,9.5h-4a1,1,0,0,1,0-2h4a1,1,0,0,1,0,2Zm-1.43-4a4.69,4.69,0,0,1,.46,1H10.9a3.29,3.29,0,1,0-.8,4h2l.81.94c.24.24.32.55.18.68l-.92.92c-.14.14-.44.06-.68-.18l-.94-.8a4.69,4.69,0,0,1-1.42.59L9,13.89c0,.33-.15.61-.35.61H7.35c-.19,0-.35-.28-.35-.61l-.1-1.23a4.63,4.63,0,0,1-1.41-.59l-1,.8c-.24.24-.54.32-.68.18l-.92-.92c-.13-.13,0-.44.19-.68l.8-.94A4.63,4.63,0,0,1,3.34,9.1L2.11,9c-.34,0-.61-.16-.61-.35V7.35c0-.2.27-.35.61-.35l1.23-.1a4.8,4.8,0,0,1,.59-1.42l-.8-.94C2.89,4.3,2.8,4,2.94,3.86l.92-.92c.14-.13.44,0,.68.19l1,.8A4.63,4.63,0,0,1,6.9,3.34L7,2.11c0-.34.16-.61.35-.61h1.3c.2,0,.35.27.35.61l.1,1.23a4.69,4.69,0,0,1,1.42.59l.94-.8c.24-.24.54-.32.68-.19l.92.92c.14.14,0,.44-.18.68Z"/></svg>