<svg id="图层_1" data-name="图层 1" xmlns="http://www.w3.org/2000/svg" viewBox="0 0 16 16"><defs><style>.cls-1{fill:#1a9bf7;fill-rule:evenodd;}</style></defs><title>图标</title><path class="cls-1" d="M9.33,12.5A29.63,29.63,0,0,0,5,8l.88-1.86S8.46,8.32,9.33,9c.4-.65,3.1-5,4.62-5.54.05,0,2.05,0,2.05,0C14.55,4.65,10.28,10.43,9.33,12.5Zm-.73-7A3.26,3.26,0,0,0,3.22,8a3,3,0,0,0,0,.31l.09.53a3.29,3.29,0,0,0,2.32,2.32l1.91,1.91-.07.82c0,.33-.15.61-.35.61H5.85c-.19,0-.35-.28-.35-.61l-.1-1.23A4.63,4.63,0,0,1,4,12.07l-1,.8c-.23.24-.54.32-.67.18l-.93-.92c-.13-.13-.05-.44.19-.68l.8-.94A4.63,4.63,0,0,1,1.84,9.1L.61,9C.27,9,0,8.84,0,8.65V7.35C0,7.15.27,7,.61,7l1.23-.1a4.63,4.63,0,0,1,.59-1.41l-.8-1c-.24-.23-.32-.54-.19-.67l.93-.93c.13-.13.44,0,.67.19l1,.8A4.63,4.63,0,0,1,5.4,3.34l.1-1.23c0-.34.16-.61.35-.61h1.3c.2,0,.35.27.35.61l.1,1.23A4.69,4.69,0,0,1,9,3.93l.94-.8c.24-.24.54-.32.68-.19l.46.46L9,5.5Z"/></svg>