<?xml version="1.0" encoding="utf-8"?>
<!-- Generator: Adobe Illustrator 22.1.0, SVG Export Plug-In . SVG Version: 6.00 Build 0)  -->
<svg version="1.1" id="图层_1" xmlns="http://www.w3.org/2000/svg" xmlns:xlink="http://www.w3.org/1999/xlink" x="0px" y="0px"
	 viewBox="0 0 16 16" style="enable-background:new 0 0 16 16;" xml:space="preserve">
<style type="text/css">
	.st0{fill-rule:evenodd;clip-rule:evenodd;fill:#1A9BF7;}
	.st1{fill:#1A9BF7;}
</style>
<g>
	<path class="st1" d="M3.5,6.8c0-2.1,1.9-3.9,4.3-3.9c2,0,3.7,1.2,4.2,2.9l-1.4-0.9L10,5.6l2.6,1.6l0,0l0,0L13,7.5l1.5-2.8l-0.9-0.4
		l-0.7,1.2C12.3,3.5,10.2,2,7.8,2C4.9,2,2.5,4.2,2.5,6.8v0.3h1L3.5,6.8L3.5,6.8z"/>
	<path class="st1" d="M12.5,9.2c0,2.1-1.9,3.9-4.3,3.9c-2,0-3.7-1.2-4.2-2.9l1.4,0.9L6,10.4L3.1,8.4L2.9,8.7l-1.4,2.6l0.9,0.4
		l0.7-1.2C3.7,12.5,5.7,14,8.2,14c2.9,0,5.3-2.2,5.3-4.8V8.9h-1L12.5,9.2L12.5,9.2z"/>
	<path class="st1" d="M3.5,6.8c0-2.1,1.9-3.9,4.3-3.9c2,0,3.7,1.2,4.2,2.9l-1.4-0.9L10,5.6l2.6,1.6l0,0l0,0L13,7.5l1.5-2.8l-0.9-0.4
		l-0.7,1.2C12.3,3.5,10.2,2,7.8,2C4.9,2,2.5,4.2,2.5,6.8v0.3h1L3.5,6.8L3.5,6.8z"/>
	<path class="st1" d="M12.5,9.2c0,2.1-1.9,3.9-4.3,3.9c-2,0-3.7-1.2-4.2-2.9l1.4,0.9L6,10.4L3.1,8.4L2.9,8.7l-1.4,2.6l0.9,0.4
		l0.7-1.2C3.7,12.5,5.7,14,8.2,14c2.9,0,5.3-2.2,5.3-4.8V8.9h-1L12.5,9.2L12.5,9.2z"/>
</g>
</svg>
